M48
; DRILL file {KiCad (5.1.5)-3} date 9/29/2021 9:40:09 AM
; FORMAT={-:-/ absolute / metric / decimal}
; #@! TF.CreationDate,2021-09-29T09:40:09-04:00
; #@! TF.GenerationSoftware,Kicad,Pcbnew,(5.1.5)-3
; #@! TF.FileFunction,Plated,1,2,PTH
FMAT,2
METRIC
T1C0.650
T2C1.000
%
G90
G05
T1
X132.715Y-92.71
X132.715Y-87.63
X142.113Y-83.058
X142.113Y-89.154
X142.113Y-84.582
X142.113Y-87.63
X142.113Y-93.091
X142.113Y-90.932
X132.842Y-84.455
X132.842Y-82.931
X137.16Y-82.931
X132.715Y-89.154
T2
X139.7Y-83.82
X139.7Y-86.36
X139.7Y-88.9
X139.7Y-91.44
X137.16Y-85.09
X137.16Y-87.63
X137.16Y-90.17
X137.16Y-92.71
X134.62Y-83.82
X134.62Y-86.36
X134.62Y-88.9
X134.62Y-91.44
T0
M30
