G04 #@! TF.GenerationSoftware,KiCad,Pcbnew,(5.1.5)-3*
G04 #@! TF.CreationDate,2021-09-29T09:40:05-04:00*
G04 #@! TF.ProjectId,Connector,436f6e6e-6563-4746-9f72-2e6b69636164,rev?*
G04 #@! TF.SameCoordinates,Original*
G04 #@! TF.FileFunction,Copper,L1,Top*
G04 #@! TF.FilePolarity,Positive*
%FSLAX46Y46*%
G04 Gerber Fmt 4.6, Leading zero omitted, Abs format (unit mm)*
G04 Created by KiCad (PCBNEW (5.1.5)-3) date 2021-09-29 09:40:05*
%MOMM*%
%LPD*%
G04 APERTURE LIST*
%ADD10R,1.000000X1.000000*%
%ADD11O,1.700000X1.700000*%
%ADD12R,1.700000X1.700000*%
%ADD13C,0.250000*%
G04 APERTURE END LIST*
D10*
X132842000Y-82931000D03*
X142113000Y-90932000D03*
X142113000Y-87630000D03*
X142113000Y-84582000D03*
X142113000Y-83058000D03*
X142113000Y-93091000D03*
X142113000Y-89154000D03*
X132715000Y-87630000D03*
X137160000Y-82931000D03*
X132715000Y-92710000D03*
X132715000Y-89154000D03*
X132842000Y-84455000D03*
D11*
X139700000Y-91440000D03*
X139700000Y-88900000D03*
X139700000Y-86360000D03*
D12*
X139700000Y-83820000D03*
D11*
X137160000Y-92710000D03*
X137160000Y-90170000D03*
X137160000Y-87630000D03*
D12*
X137160000Y-85090000D03*
D11*
X134620000Y-91440000D03*
X134620000Y-88900000D03*
X134620000Y-86360000D03*
D12*
X134620000Y-83820000D03*
D13*
X133417919Y-91440000D02*
X134620000Y-91440000D01*
X132715000Y-91960000D02*
X133235000Y-91440000D01*
X133235000Y-91440000D02*
X133417919Y-91440000D01*
X132715000Y-92710000D02*
X132715000Y-91960000D01*
X134366000Y-89154000D02*
X134620000Y-88900000D01*
X132715000Y-89154000D02*
X134366000Y-89154000D01*
X133997000Y-86360000D02*
X134620000Y-86360000D01*
X132842000Y-85205000D02*
X133997000Y-86360000D01*
X132842000Y-84455000D02*
X132842000Y-85205000D01*
X133731000Y-82931000D02*
X134620000Y-83820000D01*
X132842000Y-82931000D02*
X133731000Y-82931000D01*
X138430000Y-92710000D02*
X137160000Y-92710000D01*
X142113000Y-93091000D02*
X138811000Y-93091000D01*
X138811000Y-93091000D02*
X138430000Y-92710000D01*
X141363000Y-89154000D02*
X140843000Y-89674000D01*
X142113000Y-89154000D02*
X141363000Y-89154000D01*
X140843000Y-89674000D02*
X140843000Y-90043000D01*
X140716000Y-90170000D02*
X137160000Y-90170000D01*
X140843000Y-90043000D02*
X140716000Y-90170000D01*
X133465000Y-87630000D02*
X137160000Y-87630000D01*
X132715000Y-87630000D02*
X133465000Y-87630000D01*
X137160000Y-82931000D02*
X137160000Y-85090000D01*
X140208000Y-90932000D02*
X139700000Y-91440000D01*
X142113000Y-90932000D02*
X140208000Y-90932000D01*
X140970000Y-87630000D02*
X139700000Y-88900000D01*
X142113000Y-87630000D02*
X140970000Y-87630000D01*
X140902081Y-86360000D02*
X139700000Y-86360000D01*
X141085000Y-86360000D02*
X140902081Y-86360000D01*
X142113000Y-85332000D02*
X141085000Y-86360000D01*
X142113000Y-84582000D02*
X142113000Y-85332000D01*
X140462000Y-83058000D02*
X139700000Y-83820000D01*
X142113000Y-83058000D02*
X140462000Y-83058000D01*
M02*
