G04 #@! TF.GenerationSoftware,KiCad,Pcbnew,(5.1.5)-3*
G04 #@! TF.CreationDate,2021-09-29T09:40:05-04:00*
G04 #@! TF.ProjectId,Connector,436f6e6e-6563-4746-9f72-2e6b69636164,rev?*
G04 #@! TF.SameCoordinates,Original*
G04 #@! TF.FileFunction,Soldermask,Top*
G04 #@! TF.FilePolarity,Negative*
%FSLAX46Y46*%
G04 Gerber Fmt 4.6, Leading zero omitted, Abs format (unit mm)*
G04 Created by KiCad (PCBNEW (5.1.5)-3) date 2021-09-29 09:40:05*
%MOMM*%
%LPD*%
G04 APERTURE LIST*
%ADD10C,0.100000*%
G04 APERTURE END LIST*
D10*
G36*
X142664000Y-93642000D02*
G01*
X141562000Y-93642000D01*
X141562000Y-92540000D01*
X142664000Y-92540000D01*
X142664000Y-93642000D01*
G37*
G36*
X137273512Y-91813927D02*
G01*
X137422812Y-91843624D01*
X137586784Y-91911544D01*
X137734354Y-92010147D01*
X137859853Y-92135646D01*
X137958456Y-92283216D01*
X138026376Y-92447188D01*
X138061000Y-92621259D01*
X138061000Y-92798741D01*
X138026376Y-92972812D01*
X137958456Y-93136784D01*
X137859853Y-93284354D01*
X137734354Y-93409853D01*
X137586784Y-93508456D01*
X137422812Y-93576376D01*
X137273512Y-93606073D01*
X137248742Y-93611000D01*
X137071258Y-93611000D01*
X137046488Y-93606073D01*
X136897188Y-93576376D01*
X136733216Y-93508456D01*
X136585646Y-93409853D01*
X136460147Y-93284354D01*
X136361544Y-93136784D01*
X136293624Y-92972812D01*
X136259000Y-92798741D01*
X136259000Y-92621259D01*
X136293624Y-92447188D01*
X136361544Y-92283216D01*
X136460147Y-92135646D01*
X136585646Y-92010147D01*
X136733216Y-91911544D01*
X136897188Y-91843624D01*
X137046488Y-91813927D01*
X137071258Y-91809000D01*
X137248742Y-91809000D01*
X137273512Y-91813927D01*
G37*
G36*
X133266000Y-93261000D02*
G01*
X132164000Y-93261000D01*
X132164000Y-92159000D01*
X133266000Y-92159000D01*
X133266000Y-93261000D01*
G37*
G36*
X139813512Y-90543927D02*
G01*
X139962812Y-90573624D01*
X140126784Y-90641544D01*
X140274354Y-90740147D01*
X140399853Y-90865646D01*
X140498456Y-91013216D01*
X140566376Y-91177188D01*
X140601000Y-91351259D01*
X140601000Y-91528741D01*
X140566376Y-91702812D01*
X140498456Y-91866784D01*
X140399853Y-92014354D01*
X140274354Y-92139853D01*
X140126784Y-92238456D01*
X139962812Y-92306376D01*
X139813512Y-92336073D01*
X139788742Y-92341000D01*
X139611258Y-92341000D01*
X139586488Y-92336073D01*
X139437188Y-92306376D01*
X139273216Y-92238456D01*
X139125646Y-92139853D01*
X139000147Y-92014354D01*
X138901544Y-91866784D01*
X138833624Y-91702812D01*
X138799000Y-91528741D01*
X138799000Y-91351259D01*
X138833624Y-91177188D01*
X138901544Y-91013216D01*
X139000147Y-90865646D01*
X139125646Y-90740147D01*
X139273216Y-90641544D01*
X139437188Y-90573624D01*
X139586488Y-90543927D01*
X139611258Y-90539000D01*
X139788742Y-90539000D01*
X139813512Y-90543927D01*
G37*
G36*
X134733512Y-90543927D02*
G01*
X134882812Y-90573624D01*
X135046784Y-90641544D01*
X135194354Y-90740147D01*
X135319853Y-90865646D01*
X135418456Y-91013216D01*
X135486376Y-91177188D01*
X135521000Y-91351259D01*
X135521000Y-91528741D01*
X135486376Y-91702812D01*
X135418456Y-91866784D01*
X135319853Y-92014354D01*
X135194354Y-92139853D01*
X135046784Y-92238456D01*
X134882812Y-92306376D01*
X134733512Y-92336073D01*
X134708742Y-92341000D01*
X134531258Y-92341000D01*
X134506488Y-92336073D01*
X134357188Y-92306376D01*
X134193216Y-92238456D01*
X134045646Y-92139853D01*
X133920147Y-92014354D01*
X133821544Y-91866784D01*
X133753624Y-91702812D01*
X133719000Y-91528741D01*
X133719000Y-91351259D01*
X133753624Y-91177188D01*
X133821544Y-91013216D01*
X133920147Y-90865646D01*
X134045646Y-90740147D01*
X134193216Y-90641544D01*
X134357188Y-90573624D01*
X134506488Y-90543927D01*
X134531258Y-90539000D01*
X134708742Y-90539000D01*
X134733512Y-90543927D01*
G37*
G36*
X142664000Y-91483000D02*
G01*
X141562000Y-91483000D01*
X141562000Y-90381000D01*
X142664000Y-90381000D01*
X142664000Y-91483000D01*
G37*
G36*
X137273512Y-89273927D02*
G01*
X137422812Y-89303624D01*
X137586784Y-89371544D01*
X137734354Y-89470147D01*
X137859853Y-89595646D01*
X137958456Y-89743216D01*
X138026376Y-89907188D01*
X138061000Y-90081259D01*
X138061000Y-90258741D01*
X138026376Y-90432812D01*
X137958456Y-90596784D01*
X137859853Y-90744354D01*
X137734354Y-90869853D01*
X137586784Y-90968456D01*
X137422812Y-91036376D01*
X137273512Y-91066073D01*
X137248742Y-91071000D01*
X137071258Y-91071000D01*
X137046488Y-91066073D01*
X136897188Y-91036376D01*
X136733216Y-90968456D01*
X136585646Y-90869853D01*
X136460147Y-90744354D01*
X136361544Y-90596784D01*
X136293624Y-90432812D01*
X136259000Y-90258741D01*
X136259000Y-90081259D01*
X136293624Y-89907188D01*
X136361544Y-89743216D01*
X136460147Y-89595646D01*
X136585646Y-89470147D01*
X136733216Y-89371544D01*
X136897188Y-89303624D01*
X137046488Y-89273927D01*
X137071258Y-89269000D01*
X137248742Y-89269000D01*
X137273512Y-89273927D01*
G37*
G36*
X134733512Y-88003927D02*
G01*
X134882812Y-88033624D01*
X135046784Y-88101544D01*
X135194354Y-88200147D01*
X135319853Y-88325646D01*
X135418456Y-88473216D01*
X135486376Y-88637188D01*
X135521000Y-88811259D01*
X135521000Y-88988741D01*
X135486376Y-89162812D01*
X135418456Y-89326784D01*
X135319853Y-89474354D01*
X135194354Y-89599853D01*
X135046784Y-89698456D01*
X134882812Y-89766376D01*
X134733512Y-89796073D01*
X134708742Y-89801000D01*
X134531258Y-89801000D01*
X134506488Y-89796073D01*
X134357188Y-89766376D01*
X134193216Y-89698456D01*
X134045646Y-89599853D01*
X133920147Y-89474354D01*
X133821544Y-89326784D01*
X133753624Y-89162812D01*
X133719000Y-88988741D01*
X133719000Y-88811259D01*
X133753624Y-88637188D01*
X133821544Y-88473216D01*
X133920147Y-88325646D01*
X134045646Y-88200147D01*
X134193216Y-88101544D01*
X134357188Y-88033624D01*
X134506488Y-88003927D01*
X134531258Y-87999000D01*
X134708742Y-87999000D01*
X134733512Y-88003927D01*
G37*
G36*
X139813512Y-88003927D02*
G01*
X139962812Y-88033624D01*
X140126784Y-88101544D01*
X140274354Y-88200147D01*
X140399853Y-88325646D01*
X140498456Y-88473216D01*
X140566376Y-88637188D01*
X140601000Y-88811259D01*
X140601000Y-88988741D01*
X140566376Y-89162812D01*
X140498456Y-89326784D01*
X140399853Y-89474354D01*
X140274354Y-89599853D01*
X140126784Y-89698456D01*
X139962812Y-89766376D01*
X139813512Y-89796073D01*
X139788742Y-89801000D01*
X139611258Y-89801000D01*
X139586488Y-89796073D01*
X139437188Y-89766376D01*
X139273216Y-89698456D01*
X139125646Y-89599853D01*
X139000147Y-89474354D01*
X138901544Y-89326784D01*
X138833624Y-89162812D01*
X138799000Y-88988741D01*
X138799000Y-88811259D01*
X138833624Y-88637188D01*
X138901544Y-88473216D01*
X139000147Y-88325646D01*
X139125646Y-88200147D01*
X139273216Y-88101544D01*
X139437188Y-88033624D01*
X139586488Y-88003927D01*
X139611258Y-87999000D01*
X139788742Y-87999000D01*
X139813512Y-88003927D01*
G37*
G36*
X133266000Y-89705000D02*
G01*
X132164000Y-89705000D01*
X132164000Y-88603000D01*
X133266000Y-88603000D01*
X133266000Y-89705000D01*
G37*
G36*
X142664000Y-89705000D02*
G01*
X141562000Y-89705000D01*
X141562000Y-88603000D01*
X142664000Y-88603000D01*
X142664000Y-89705000D01*
G37*
G36*
X137273512Y-86733927D02*
G01*
X137422812Y-86763624D01*
X137586784Y-86831544D01*
X137734354Y-86930147D01*
X137859853Y-87055646D01*
X137958456Y-87203216D01*
X138026376Y-87367188D01*
X138061000Y-87541259D01*
X138061000Y-87718741D01*
X138026376Y-87892812D01*
X137958456Y-88056784D01*
X137859853Y-88204354D01*
X137734354Y-88329853D01*
X137586784Y-88428456D01*
X137422812Y-88496376D01*
X137273512Y-88526073D01*
X137248742Y-88531000D01*
X137071258Y-88531000D01*
X137046488Y-88526073D01*
X136897188Y-88496376D01*
X136733216Y-88428456D01*
X136585646Y-88329853D01*
X136460147Y-88204354D01*
X136361544Y-88056784D01*
X136293624Y-87892812D01*
X136259000Y-87718741D01*
X136259000Y-87541259D01*
X136293624Y-87367188D01*
X136361544Y-87203216D01*
X136460147Y-87055646D01*
X136585646Y-86930147D01*
X136733216Y-86831544D01*
X136897188Y-86763624D01*
X137046488Y-86733927D01*
X137071258Y-86729000D01*
X137248742Y-86729000D01*
X137273512Y-86733927D01*
G37*
G36*
X142664000Y-88181000D02*
G01*
X141562000Y-88181000D01*
X141562000Y-87079000D01*
X142664000Y-87079000D01*
X142664000Y-88181000D01*
G37*
G36*
X133266000Y-88181000D02*
G01*
X132164000Y-88181000D01*
X132164000Y-87079000D01*
X133266000Y-87079000D01*
X133266000Y-88181000D01*
G37*
G36*
X139813512Y-85463927D02*
G01*
X139962812Y-85493624D01*
X140126784Y-85561544D01*
X140274354Y-85660147D01*
X140399853Y-85785646D01*
X140498456Y-85933216D01*
X140566376Y-86097188D01*
X140601000Y-86271259D01*
X140601000Y-86448741D01*
X140566376Y-86622812D01*
X140498456Y-86786784D01*
X140399853Y-86934354D01*
X140274354Y-87059853D01*
X140126784Y-87158456D01*
X139962812Y-87226376D01*
X139813512Y-87256073D01*
X139788742Y-87261000D01*
X139611258Y-87261000D01*
X139586488Y-87256073D01*
X139437188Y-87226376D01*
X139273216Y-87158456D01*
X139125646Y-87059853D01*
X139000147Y-86934354D01*
X138901544Y-86786784D01*
X138833624Y-86622812D01*
X138799000Y-86448741D01*
X138799000Y-86271259D01*
X138833624Y-86097188D01*
X138901544Y-85933216D01*
X139000147Y-85785646D01*
X139125646Y-85660147D01*
X139273216Y-85561544D01*
X139437188Y-85493624D01*
X139586488Y-85463927D01*
X139611258Y-85459000D01*
X139788742Y-85459000D01*
X139813512Y-85463927D01*
G37*
G36*
X134733512Y-85463927D02*
G01*
X134882812Y-85493624D01*
X135046784Y-85561544D01*
X135194354Y-85660147D01*
X135319853Y-85785646D01*
X135418456Y-85933216D01*
X135486376Y-86097188D01*
X135521000Y-86271259D01*
X135521000Y-86448741D01*
X135486376Y-86622812D01*
X135418456Y-86786784D01*
X135319853Y-86934354D01*
X135194354Y-87059853D01*
X135046784Y-87158456D01*
X134882812Y-87226376D01*
X134733512Y-87256073D01*
X134708742Y-87261000D01*
X134531258Y-87261000D01*
X134506488Y-87256073D01*
X134357188Y-87226376D01*
X134193216Y-87158456D01*
X134045646Y-87059853D01*
X133920147Y-86934354D01*
X133821544Y-86786784D01*
X133753624Y-86622812D01*
X133719000Y-86448741D01*
X133719000Y-86271259D01*
X133753624Y-86097188D01*
X133821544Y-85933216D01*
X133920147Y-85785646D01*
X134045646Y-85660147D01*
X134193216Y-85561544D01*
X134357188Y-85493624D01*
X134506488Y-85463927D01*
X134531258Y-85459000D01*
X134708742Y-85459000D01*
X134733512Y-85463927D01*
G37*
G36*
X138061000Y-85991000D02*
G01*
X136259000Y-85991000D01*
X136259000Y-84189000D01*
X138061000Y-84189000D01*
X138061000Y-85991000D01*
G37*
G36*
X142664000Y-85133000D02*
G01*
X141562000Y-85133000D01*
X141562000Y-84031000D01*
X142664000Y-84031000D01*
X142664000Y-85133000D01*
G37*
G36*
X133393000Y-85006000D02*
G01*
X132291000Y-85006000D01*
X132291000Y-83904000D01*
X133393000Y-83904000D01*
X133393000Y-85006000D01*
G37*
G36*
X135521000Y-84721000D02*
G01*
X133719000Y-84721000D01*
X133719000Y-82919000D01*
X135521000Y-82919000D01*
X135521000Y-84721000D01*
G37*
G36*
X140601000Y-84721000D02*
G01*
X138799000Y-84721000D01*
X138799000Y-82919000D01*
X140601000Y-82919000D01*
X140601000Y-84721000D01*
G37*
G36*
X142664000Y-83609000D02*
G01*
X141562000Y-83609000D01*
X141562000Y-82507000D01*
X142664000Y-82507000D01*
X142664000Y-83609000D01*
G37*
G36*
X137711000Y-83482000D02*
G01*
X136609000Y-83482000D01*
X136609000Y-82380000D01*
X137711000Y-82380000D01*
X137711000Y-83482000D01*
G37*
G36*
X133393000Y-83482000D02*
G01*
X132291000Y-83482000D01*
X132291000Y-82380000D01*
X133393000Y-82380000D01*
X133393000Y-83482000D01*
G37*
M02*
